<mxfile host="drawio-plugin" modified="2022-06-08T08:18:52.281Z" agent="5.0 (Windows NT 6.2; Win64; x64) AppleWebKit/537.36 (KHTML, like Gecko) Chrome/97.0.4692.45 Safari/537.36" etag="SZ2573uDC9Uw9QlHLkxT" version="15.5.4" type="embed" pages="3"><diagram id="cgn4MWzvqMW4lO1n-MsT" name="原型一"><mxGraphModel dx="922" dy="375" grid="1" gridSize="10" guides="1" tooltips="1" connect="1" arrows="1" fold="1" page="1" pageScale="1" pageWidth="827" pageHeight="1169" math="0" shadow="0"><root><mxCell id="0"/><mxCell id="1" parent="0"/><mxCell id="nZ5aHqI9_4rr2S92FwVX-1" value="" style="rounded=1;whiteSpace=wrap;html=1;strokeColor=#67AB9F;glass=0;sketch=0;shadow=0;" parent="1" vertex="1"><mxGeometry x="350" y="40" width="230" height="340" as="geometry"/></mxCell><mxCell id="nZ5aHqI9_4rr2S92FwVX-2" value="" style="group;rounded=1;fillColor=#d5e8d4;strokeColor=#82b366;" parent="1" vertex="1" connectable="0"><mxGeometry x="350" y="76" width="230" height="60" as="geometry"/></mxCell><mxCell id="nZ5aHqI9_4rr2S92FwVX-3" value="" style="rounded=1;whiteSpace=wrap;html=1;glass=0;fontSize=31;strokeColor=#82b366;fillColor=#d5e8d4;" parent="nZ5aHqI9_4rr2S92FwVX-2" vertex="1"><mxGeometry width="230" height="60" as="geometry"/></mxCell><mxCell id="nZ5aHqI9_4rr2S92FwVX-4" value="13：55" style="text;html=1;strokeColor=none;fillColor=none;align=center;verticalAlign=middle;whiteSpace=wrap;rounded=1;glass=0;fontSize=12;fontColor=#000000;" parent="nZ5aHqI9_4rr2S92FwVX-2" vertex="1"><mxGeometry width="46.95266272189349" height="20" as="geometry"/></mxCell><mxCell id="nZ5aHqI9_4rr2S92FwVX-5" value="完成五年高考三年模拟100页练习" style="text;html=1;strokeColor=none;fillColor=none;align=center;verticalAlign=middle;whiteSpace=wrap;rounded=1;glass=0;fontSize=12;fontColor=#000000;" parent="nZ5aHqI9_4rr2S92FwVX-2" vertex="1"><mxGeometry x="15.65" y="15" width="194.35" height="30" as="geometry"/></mxCell><mxCell id="nZ5aHqI9_4rr2S92FwVX-6" value="" style="group;rounded=1;" parent="1" vertex="1" connectable="0"><mxGeometry x="350" y="146" width="230" height="60" as="geometry"/></mxCell><mxCell id="nZ5aHqI9_4rr2S92FwVX-7" value="" style="rounded=1;whiteSpace=wrap;html=1;glass=0;fontSize=31;strokeColor=#82b366;fillColor=#d5e8d4;" parent="nZ5aHqI9_4rr2S92FwVX-6" vertex="1"><mxGeometry width="230" height="60" as="geometry"/></mxCell><mxCell id="nZ5aHqI9_4rr2S92FwVX-8" value="13：55" style="text;html=1;strokeColor=none;fillColor=none;align=center;verticalAlign=middle;whiteSpace=wrap;rounded=1;glass=0;fontSize=12;fontColor=#000000;" parent="nZ5aHqI9_4rr2S92FwVX-6" vertex="1"><mxGeometry width="46.95266272189349" height="20" as="geometry"/></mxCell><mxCell id="nZ5aHqI9_4rr2S92FwVX-9" value="完成五年高考三年模拟100页练习" style="text;html=1;strokeColor=none;fillColor=none;align=center;verticalAlign=middle;whiteSpace=wrap;rounded=1;glass=0;fontSize=12;fontColor=#000000;" parent="nZ5aHqI9_4rr2S92FwVX-6" vertex="1"><mxGeometry x="15.65" y="15" width="194.35" height="30" as="geometry"/></mxCell><mxCell id="nZ5aHqI9_4rr2S92FwVX-10" value="" style="group;rounded=1;" parent="1" vertex="1" connectable="0"><mxGeometry x="350" y="216" width="230" height="70" as="geometry"/></mxCell><mxCell id="nZ5aHqI9_4rr2S92FwVX-11" value="" style="rounded=1;whiteSpace=wrap;html=1;glass=0;fontSize=31;strokeColor=#82b366;fillColor=#d5e8d4;" parent="nZ5aHqI9_4rr2S92FwVX-10" vertex="1"><mxGeometry width="230" height="60" as="geometry"/></mxCell><mxCell id="nZ5aHqI9_4rr2S92FwVX-12" value="13：55" style="text;html=1;strokeColor=none;fillColor=none;align=center;verticalAlign=middle;whiteSpace=wrap;rounded=1;glass=0;fontSize=12;fontColor=#000000;" parent="nZ5aHqI9_4rr2S92FwVX-10" vertex="1"><mxGeometry width="46.95266272189349" height="20" as="geometry"/></mxCell><mxCell id="nZ5aHqI9_4rr2S92FwVX-13" value="完成五年高考三年模拟100页练习" style="text;html=1;strokeColor=none;fillColor=none;align=center;verticalAlign=middle;whiteSpace=wrap;rounded=1;glass=0;fontSize=12;fontColor=#000000;" parent="nZ5aHqI9_4rr2S92FwVX-10" vertex="1"><mxGeometry x="15.65" y="15" width="194.35" height="30" as="geometry"/></mxCell><mxCell id="nZ5aHqI9_4rr2S92FwVX-14" value="" style="group;rounded=1;" parent="1" vertex="1" connectable="0"><mxGeometry x="350" y="286" width="230" height="60" as="geometry"/></mxCell><mxCell id="nZ5aHqI9_4rr2S92FwVX-15" value="" style="rounded=1;whiteSpace=wrap;html=1;glass=0;fontSize=31;strokeColor=#82b366;fillColor=#d5e8d4;" parent="nZ5aHqI9_4rr2S92FwVX-14" vertex="1"><mxGeometry width="230" height="60" as="geometry"/></mxCell><mxCell id="nZ5aHqI9_4rr2S92FwVX-16" value="13：55" style="text;html=1;strokeColor=none;fillColor=none;align=center;verticalAlign=middle;whiteSpace=wrap;rounded=1;glass=0;fontSize=12;fontColor=#000000;" parent="nZ5aHqI9_4rr2S92FwVX-14" vertex="1"><mxGeometry width="46.95266272189349" height="20" as="geometry"/></mxCell><mxCell id="nZ5aHqI9_4rr2S92FwVX-17" value="完成五年高考三年模拟100页练习" style="text;html=1;strokeColor=none;fillColor=none;align=center;verticalAlign=middle;whiteSpace=wrap;rounded=1;glass=0;fontSize=12;fontColor=#000000;" parent="nZ5aHqI9_4rr2S92FwVX-14" vertex="1"><mxGeometry x="15.65" y="15" width="194.35" height="30" as="geometry"/></mxCell><mxCell id="nZ5aHqI9_4rr2S92FwVX-18" value="" style="rounded=1;whiteSpace=wrap;html=1;strokeColor=#67AB9F;glass=0;sketch=0;shadow=0;" parent="1" vertex="1"><mxGeometry x="30" y="20" width="230" height="340" as="geometry"/></mxCell><mxCell id="nZ5aHqI9_4rr2S92FwVX-19" style="edgeStyle=orthogonalEdgeStyle;rounded=1;orthogonalLoop=1;jettySize=auto;html=1;exitX=1;exitY=1;exitDx=0;exitDy=0;entryX=0;entryY=0.25;entryDx=0;entryDy=0;fontSize=10;fontColor=#000000;dashed=1;" parent="1" source="nZ5aHqI9_4rr2S92FwVX-20" target="nZ5aHqI9_4rr2S92FwVX-38" edge="1"><mxGeometry relative="1" as="geometry"/></mxCell><mxCell id="nZ5aHqI9_4rr2S92FwVX-20" value="+" style="ellipse;whiteSpace=wrap;html=1;aspect=fixed;fontSize=31;strokeColor=none;fillColor=#d5e8d4;rounded=1;fontColor=#FFFFFF;" parent="1" vertex="1"><mxGeometry x="220" y="320" width="30" height="30" as="geometry"/></mxCell><mxCell id="nZ5aHqI9_4rr2S92FwVX-21" value="" style="group;rounded=1;" parent="1" vertex="1" connectable="0"><mxGeometry x="30" y="50" width="230" height="60" as="geometry"/></mxCell><mxCell id="nZ5aHqI9_4rr2S92FwVX-22" value="" style="rounded=1;whiteSpace=wrap;html=1;glass=0;fontSize=31;strokeColor=#82b366;fillColor=#FFFF99;" parent="nZ5aHqI9_4rr2S92FwVX-21" vertex="1"><mxGeometry width="230" height="60" as="geometry"/></mxCell><mxCell id="nZ5aHqI9_4rr2S92FwVX-23" value="13：55" style="text;html=1;strokeColor=none;fillColor=none;align=center;verticalAlign=middle;whiteSpace=wrap;rounded=1;glass=0;fontSize=12;fontColor=#000000;" parent="nZ5aHqI9_4rr2S92FwVX-21" vertex="1"><mxGeometry width="46.95266272189349" height="20" as="geometry"/></mxCell><mxCell id="nZ5aHqI9_4rr2S92FwVX-24" value="完成五年高考三年模拟100页练习" style="text;html=1;strokeColor=none;fillColor=none;align=center;verticalAlign=middle;whiteSpace=wrap;rounded=1;glass=0;fontSize=12;fontColor=#000000;" parent="nZ5aHqI9_4rr2S92FwVX-21" vertex="1"><mxGeometry x="15.65" y="15" width="194.35" height="30" as="geometry"/></mxCell><mxCell id="nZ5aHqI9_4rr2S92FwVX-25" value="" style="group" parent="1" vertex="1" connectable="0"><mxGeometry x="30" y="130" width="230" height="60" as="geometry"/></mxCell><mxCell id="nZ5aHqI9_4rr2S92FwVX-26" value="" style="rounded=1;whiteSpace=wrap;html=1;glass=0;fontSize=31;strokeColor=#82b366;fillColor=#d5e8d4;" parent="nZ5aHqI9_4rr2S92FwVX-25" vertex="1"><mxGeometry width="230" height="60" as="geometry"/></mxCell><mxCell id="nZ5aHqI9_4rr2S92FwVX-27" value="09：55" style="text;html=1;strokeColor=none;fillColor=none;align=center;verticalAlign=middle;whiteSpace=wrap;rounded=0;glass=0;fontSize=12;fontColor=#000000;" parent="nZ5aHqI9_4rr2S92FwVX-25" vertex="1"><mxGeometry width="53.07692307692307" height="20" as="geometry"/></mxCell><mxCell id="nZ5aHqI9_4rr2S92FwVX-28" value="做一百道练习题再背诵一百首唐诗再做一百道阅读理解和完形..." style="text;html=1;strokeColor=none;fillColor=none;align=center;verticalAlign=middle;whiteSpace=wrap;rounded=0;glass=0;fontSize=12;fontColor=#000000;" parent="nZ5aHqI9_4rr2S92FwVX-25" vertex="1"><mxGeometry x="17.692307692307693" y="20" width="176.9230769230769" height="30" as="geometry"/></mxCell><mxCell id="nZ5aHqI9_4rr2S92FwVX-38" value="" style="rounded=1;whiteSpace=wrap;html=1;strokeColor=#67AB9F;glass=0;sketch=0;shadow=0;fontSize=10;fillColor=#FFFFFF;" parent="1" vertex="1"><mxGeometry x="349" y="410" width="230" height="340" as="geometry"/></mxCell><mxCell id="nZ5aHqI9_4rr2S92FwVX-39" value="| 在此添加文本" style="text;html=1;strokeColor=none;fillColor=none;align=center;verticalAlign=middle;whiteSpace=wrap;rounded=0;shadow=0;glass=0;sketch=0;fontSize=10;fontColor=#000000;" parent="1" vertex="1"><mxGeometry x="358" y="430" width="76" height="30" as="geometry"/></mxCell><mxCell id="nZ5aHqI9_4rr2S92FwVX-40" value="时间：20：38" style="text;html=1;strokeColor=none;fillColor=none;align=center;verticalAlign=middle;whiteSpace=wrap;rounded=0;shadow=0;glass=0;sketch=0;fontSize=10;fontColor=#000000;" parent="1" vertex="1"><mxGeometry x="490" y="410" width="80" height="30" as="geometry"/></mxCell><mxCell id="nZ5aHqI9_4rr2S92FwVX-41" value="" style="endArrow=none;html=1;rounded=1;fontSize=10;fontColor=#000000;exitX=-0.004;exitY=0.156;exitDx=0;exitDy=0;exitPerimeter=0;entryX=1.004;entryY=0.156;entryDx=0;entryDy=0;entryPerimeter=0;" parent="1" edge="1"><mxGeometry width="50" height="50" relative="1" as="geometry"><mxPoint x="352" y="436.03999999999985" as="sourcePoint"/><mxPoint x="576" y="436.03999999999985" as="targetPoint"/><Array as="points"><mxPoint x="440" y="436"/></Array></mxGeometry></mxCell><mxCell id="nZ5aHqI9_4rr2S92FwVX-42" value="" style="endArrow=none;html=1;rounded=1;fontSize=10;fontColor=#000000;exitX=-0.004;exitY=0.156;exitDx=0;exitDy=0;exitPerimeter=0;entryX=1.004;entryY=0.156;entryDx=0;entryDy=0;entryPerimeter=0;" parent="1" edge="1"><mxGeometry width="50" height="50" relative="1" as="geometry"><mxPoint x="353" y="714.0399999999998" as="sourcePoint"/><mxPoint x="577" y="714.0399999999998" as="targetPoint"/><Array as="points"><mxPoint x="441" y="714"/></Array></mxGeometry></mxCell><mxCell id="nZ5aHqI9_4rr2S92FwVX-43" value="标签 :&amp;nbsp;" style="text;html=1;strokeColor=none;fillColor=none;align=center;verticalAlign=middle;whiteSpace=wrap;rounded=0;shadow=0;glass=0;sketch=0;fontSize=10;fontColor=#000000;" parent="1" vertex="1"><mxGeometry x="352" y="717" width="34" height="10" as="geometry"/></mxCell><mxCell id="nZ5aHqI9_4rr2S92FwVX-44" value="作业" style="text;html=1;strokeColor=none;fillColor=#f8cecc;align=center;verticalAlign=middle;whiteSpace=wrap;rounded=0;glass=0;fontSize=10;fontColor=#FFFFFF;shadow=0;sketch=0;" parent="1" vertex="1"><mxGeometry x="386.5" y="716" width="35" height="15" as="geometry"/></mxCell><mxCell id="nZ5aHqI9_4rr2S92FwVX-45" value="+" style="ellipse;whiteSpace=wrap;html=1;aspect=fixed;rounded=1;shadow=0;glass=0;sketch=0;fontSize=10;strokeColor=#82b366;fillColor=#d5e8d4;align=center;horizontal=1;fontStyle=1;fontColor=#FFFFFF;" parent="1" vertex="1"><mxGeometry x="464" y="716" width="14" height="14" as="geometry"/></mxCell><mxCell id="nZ5aHqI9_4rr2S92FwVX-46" value="|添加" style="text;html=1;strokeColor=none;fillColor=#f8cecc;align=center;verticalAlign=middle;whiteSpace=wrap;rounded=0;glass=0;fontSize=10;fontColor=#FFFFFF;shadow=0;sketch=0;" parent="1" vertex="1"><mxGeometry x="426" y="716" width="35" height="15" as="geometry"/></mxCell><mxCell id="nZ5aHqI9_4rr2S92FwVX-47" style="edgeStyle=orthogonalEdgeStyle;rounded=1;orthogonalLoop=1;jettySize=auto;html=1;exitX=0.5;exitY=0;exitDx=0;exitDy=0;entryX=0;entryY=0.25;entryDx=0;entryDy=0;fontSize=10;fontColor=#000000;dashed=1;" parent="1" source="nZ5aHqI9_4rr2S92FwVX-48" target="nZ5aHqI9_4rr2S92FwVX-1" edge="1"><mxGeometry relative="1" as="geometry"/></mxCell><mxCell id="nZ5aHqI9_4rr2S92FwVX-48" value="&amp;nbsp;(-)" style="ellipse;whiteSpace=wrap;html=1;aspect=fixed;rounded=1;shadow=0;glass=0;sketch=0;fontSize=10;strokeColor=none;fillColor=#d5e8d4;align=center;horizontal=1;rotation=90;fontColor=#000000;spacingTop=-1;spacingLeft=0;spacingBottom=2;spacingRight=0;" parent="1" vertex="1"><mxGeometry x="223" y="23" width="20" height="20" as="geometry"/></mxCell><mxCell id="nZ5aHqI9_4rr2S92FwVX-49" value="" style="endArrow=none;html=1;rounded=1;fontSize=10;fontColor=#000000;exitX=1;exitY=0.75;exitDx=0;exitDy=0;entryX=0;entryY=0.5;entryDx=0;entryDy=0;dashed=1;" parent="1" source="nZ5aHqI9_4rr2S92FwVX-26" target="nZ5aHqI9_4rr2S92FwVX-7" edge="1"><mxGeometry width="50" height="50" relative="1" as="geometry"><mxPoint x="280" y="250" as="sourcePoint"/><mxPoint x="330" y="200" as="targetPoint"/></mxGeometry></mxCell><mxCell id="nZ5aHqI9_4rr2S92FwVX-50" value="" style="endArrow=none;html=1;rounded=1;fontSize=10;fontColor=#000000;dashed=1;" parent="1" edge="1"><mxGeometry width="50" height="50" relative="1" as="geometry"><mxPoint x="299" y="175" as="sourcePoint"/><mxPoint x="299" y="365" as="targetPoint"/></mxGeometry></mxCell><mxCell id="LbbovGrec186bLTMPdvC-1" value="ok" style="ellipse;whiteSpace=wrap;html=1;aspect=fixed;fontSize=15;strokeColor=none;fillColor=#d5e8d4;rounded=1;fontColor=#FFFFFF;" parent="1" vertex="1"><mxGeometry x="540" y="680" width="30" height="30" as="geometry"/></mxCell><mxCell id="eftR5Y6rXvQx5k6JB8j6-1" value="" style="group" parent="1" vertex="1" connectable="0"><mxGeometry x="370" y="40" width="190" height="20" as="geometry"/></mxCell><mxCell id="nZ5aHqI9_4rr2S92FwVX-29" value="&amp;lt;" style="ellipse;whiteSpace=wrap;html=1;aspect=fixed;rounded=1;shadow=0;glass=0;sketch=0;fontSize=10;strokeColor=none;fillColor=#d5e8d4;align=center;horizontal=1;fontStyle=1;" parent="eftR5Y6rXvQx5k6JB8j6-1" vertex="1"><mxGeometry width="20" height="20" as="geometry"/></mxCell><mxCell id="nZ5aHqI9_4rr2S92FwVX-30" value="&amp;gt;" style="ellipse;whiteSpace=wrap;html=1;aspect=fixed;rounded=1;shadow=0;glass=0;sketch=0;fontSize=10;strokeColor=none;fillColor=#d5e8d4;align=center;horizontal=1;fontStyle=1;" parent="eftR5Y6rXvQx5k6JB8j6-1" vertex="1"><mxGeometry x="170" width="20" height="20" as="geometry"/></mxCell><mxCell id="nZ5aHqI9_4rr2S92FwVX-31" value="09" style="ellipse;whiteSpace=wrap;html=1;aspect=fixed;rounded=1;shadow=0;glass=0;sketch=0;fontSize=10;fontColor=#000066;strokeColor=none;fillColor=#E6FFCC;align=center;horizontal=1;" parent="eftR5Y6rXvQx5k6JB8j6-1" vertex="1"><mxGeometry x="24" width="20" height="20" as="geometry"/></mxCell><mxCell id="nZ5aHqI9_4rr2S92FwVX-32" value="10" style="ellipse;whiteSpace=wrap;html=1;aspect=fixed;rounded=1;shadow=0;glass=0;sketch=0;fontSize=10;fontColor=#000066;strokeColor=none;fillColor=#E6FFCC;align=center;horizontal=1;" parent="eftR5Y6rXvQx5k6JB8j6-1" vertex="1"><mxGeometry x="44" width="20" height="20" as="geometry"/></mxCell><mxCell id="nZ5aHqI9_4rr2S92FwVX-33" value="今" style="ellipse;whiteSpace=wrap;html=1;aspect=fixed;rounded=1;shadow=0;glass=0;sketch=0;fontSize=10;strokeColor=#d6b656;fillColor=#fff2cc;align=center;horizontal=1;fontStyle=1" parent="eftR5Y6rXvQx5k6JB8j6-1" vertex="1"><mxGeometry x="64" width="20" height="20" as="geometry"/></mxCell><mxCell id="nZ5aHqI9_4rr2S92FwVX-34" value="12" style="ellipse;whiteSpace=wrap;html=1;aspect=fixed;rounded=1;shadow=0;glass=0;sketch=0;fontSize=10;fontColor=#000066;strokeColor=none;fillColor=#E6FFCC;align=center;horizontal=1;" parent="eftR5Y6rXvQx5k6JB8j6-1" vertex="1"><mxGeometry x="84" width="20" height="20" as="geometry"/></mxCell><mxCell id="nZ5aHqI9_4rr2S92FwVX-35" value="13" style="ellipse;whiteSpace=wrap;html=1;aspect=fixed;rounded=1;shadow=0;glass=0;sketch=0;fontSize=10;fontColor=#000066;strokeColor=none;fillColor=#E6FFCC;align=center;horizontal=1;" parent="eftR5Y6rXvQx5k6JB8j6-1" vertex="1"><mxGeometry x="104" width="20" height="20" as="geometry"/></mxCell><mxCell id="nZ5aHqI9_4rr2S92FwVX-36" value="14" style="ellipse;whiteSpace=wrap;html=1;aspect=fixed;rounded=1;shadow=0;glass=0;sketch=0;fontSize=10;fontColor=#000066;strokeColor=none;fillColor=#E6FFCC;align=center;horizontal=1;" parent="eftR5Y6rXvQx5k6JB8j6-1" vertex="1"><mxGeometry x="124" width="20" height="20" as="geometry"/></mxCell><mxCell id="nZ5aHqI9_4rr2S92FwVX-37" value="15" style="ellipse;whiteSpace=wrap;html=1;aspect=fixed;rounded=1;shadow=0;glass=0;sketch=0;fontSize=10;fontColor=#000066;strokeColor=none;fillColor=#E6FFCC;align=center;horizontal=1;" parent="eftR5Y6rXvQx5k6JB8j6-1" vertex="1"><mxGeometry x="144" width="20" height="20" as="geometry"/></mxCell></root></mxGraphModel></diagram><diagram id="SjF_Ru1x6cUdAR_9xFhc" name="原型二"><mxGraphModel dx="922" dy="375" grid="1" gridSize="10" guides="1" tooltips="1" connect="1" arrows="1" fold="1" page="1" pageScale="1" pageWidth="827" pageHeight="1169" math="0" shadow="0"><root><mxCell id="0"/><mxCell id="1" parent="0"/><mxCell id="VgGlVzqa9l6ki7_SRdDo-1" value="" style="group" parent="1" vertex="1" connectable="0"><mxGeometry x="50" y="50" width="210" height="300" as="geometry"/></mxCell><mxCell id="RfHA5CMpF2GTI1fzNKEL-2" value="" style="rounded=0;whiteSpace=wrap;html=1;" parent="VgGlVzqa9l6ki7_SRdDo-1" vertex="1"><mxGeometry width="210" height="300" as="geometry"/></mxCell><mxCell id="RfHA5CMpF2GTI1fzNKEL-3" value="" style="rounded=0;whiteSpace=wrap;html=1;" parent="VgGlVzqa9l6ki7_SRdDo-1" vertex="1"><mxGeometry width="210" height="30" as="geometry"/></mxCell><mxCell id="RfHA5CMpF2GTI1fzNKEL-5" value="" style="group;rounded=0;" parent="VgGlVzqa9l6ki7_SRdDo-1" vertex="1" connectable="0"><mxGeometry y="40" width="210" height="70" as="geometry"/></mxCell><mxCell id="RfHA5CMpF2GTI1fzNKEL-6" value="" style="rounded=0;whiteSpace=wrap;html=1;glass=0;fontSize=31;strokeColor=#82b366;fillColor=#FFFF99;" parent="RfHA5CMpF2GTI1fzNKEL-5" vertex="1"><mxGeometry width="210" height="70" as="geometry"/></mxCell><mxCell id="RfHA5CMpF2GTI1fzNKEL-7" value="13：55" style="text;html=1;strokeColor=none;fillColor=none;align=center;verticalAlign=middle;whiteSpace=wrap;rounded=1;glass=0;fontSize=12;fontColor=#000000;" parent="RfHA5CMpF2GTI1fzNKEL-5" vertex="1"><mxGeometry width="59.65909090909091" height="23.33" as="geometry"/></mxCell><mxCell id="RfHA5CMpF2GTI1fzNKEL-8" value="完成五年高考三年模拟100页练习" style="text;html=1;strokeColor=none;fillColor=none;align=center;verticalAlign=middle;whiteSpace=wrap;rounded=1;glass=0;fontSize=12;fontColor=#000000;" parent="RfHA5CMpF2GTI1fzNKEL-5" vertex="1"><mxGeometry x="14.29" y="17.5" width="185.71" height="35" as="geometry"/></mxCell><mxCell id="RfHA5CMpF2GTI1fzNKEL-9" value="" style="group;rounded=0;fillColor=#d5e8d4;strokeColor=#82b366;" parent="VgGlVzqa9l6ki7_SRdDo-1" vertex="1" connectable="0"><mxGeometry y="120" width="210" height="70" as="geometry"/></mxCell><mxCell id="iTNTz-lNJHY5UwkrHeCq-2" value="" style="group" parent="RfHA5CMpF2GTI1fzNKEL-9" vertex="1" connectable="0"><mxGeometry width="210" height="70" as="geometry"/></mxCell><mxCell id="RfHA5CMpF2GTI1fzNKEL-10" value="" style="rounded=0;whiteSpace=wrap;html=1;glass=0;fontSize=31;strokeColor=#82b366;fillColor=#d5e8d4;" parent="iTNTz-lNJHY5UwkrHeCq-2" vertex="1"><mxGeometry width="210" height="70" as="geometry"/></mxCell><mxCell id="RfHA5CMpF2GTI1fzNKEL-11" value="13：55" style="text;html=1;strokeColor=none;fillColor=none;align=center;verticalAlign=middle;whiteSpace=wrap;rounded=1;glass=0;fontSize=12;fontColor=#000000;" parent="iTNTz-lNJHY5UwkrHeCq-2" vertex="1"><mxGeometry width="59.65909090909091" height="23.33" as="geometry"/></mxCell><mxCell id="RfHA5CMpF2GTI1fzNKEL-12" value="完成五年高考三年模拟100页练习" style="text;html=1;strokeColor=none;fillColor=none;align=center;verticalAlign=middle;whiteSpace=wrap;rounded=1;glass=0;fontSize=12;fontColor=#000000;" parent="iTNTz-lNJHY5UwkrHeCq-2" vertex="1"><mxGeometry x="14.29" y="17.5" width="185.71" height="35" as="geometry"/></mxCell><mxCell id="RfHA5CMpF2GTI1fzNKEL-13" value="+" style="text;html=1;strokeColor=none;fillColor=none;align=center;verticalAlign=middle;whiteSpace=wrap;rounded=0;fontStyle=1;fontSize=19;" parent="VgGlVzqa9l6ki7_SRdDo-1" vertex="1"><mxGeometry width="30" height="30" as="geometry"/></mxCell><mxCell id="RfHA5CMpF2GTI1fzNKEL-14" value="x" style="text;html=1;strokeColor=none;fillColor=none;align=center;verticalAlign=middle;whiteSpace=wrap;rounded=0;fontSize=19;labelBorderColor=none;" parent="VgGlVzqa9l6ki7_SRdDo-1" vertex="1"><mxGeometry x="190" width="20" height="20" as="geometry"/></mxCell><mxCell id="xSl337rl0JZSYAczg8bN-1" value="..." style="text;html=1;strokeColor=none;fillColor=none;align=center;verticalAlign=middle;whiteSpace=wrap;rounded=0;labelBorderColor=none;fontSize=19;" parent="VgGlVzqa9l6ki7_SRdDo-1" vertex="1"><mxGeometry x="160" y="5" width="20" height="10" as="geometry"/></mxCell><mxCell id="VgGlVzqa9l6ki7_SRdDo-15" style="edgeStyle=orthogonalEdgeStyle;orthogonalLoop=1;jettySize=auto;html=1;exitX=0.5;exitY=0;exitDx=0;exitDy=0;entryX=0;entryY=0;entryDx=0;entryDy=0;fontSize=12;rounded=1;dashed=1;" parent="1" source="RfHA5CMpF2GTI1fzNKEL-13" target="VgGlVzqa9l6ki7_SRdDo-6" edge="1"><mxGeometry relative="1" as="geometry"/></mxCell><mxCell id="SpzdYERaU6UPqIEw5BMG-1" value="" style="group" parent="1" vertex="1" connectable="0"><mxGeometry x="350" y="48" width="210" height="302" as="geometry"/></mxCell><mxCell id="VgGlVzqa9l6ki7_SRdDo-2" value="" style="rounded=0;whiteSpace=wrap;html=1;labelBorderColor=none;fontSize=19;" parent="SpzdYERaU6UPqIEw5BMG-1" vertex="1"><mxGeometry y="2" width="210" height="300" as="geometry"/></mxCell><mxCell id="VgGlVzqa9l6ki7_SRdDo-3" value="" style="rounded=0;whiteSpace=wrap;html=1;labelBorderColor=none;fontSize=19;" parent="SpzdYERaU6UPqIEw5BMG-1" vertex="1"><mxGeometry y="28" width="210" height="244" as="geometry"/></mxCell><mxCell id="VgGlVzqa9l6ki7_SRdDo-6" value="05-13&amp;nbsp; 22:30" style="text;html=1;strokeColor=none;fillColor=none;align=center;verticalAlign=middle;whiteSpace=wrap;rounded=0;labelBorderColor=none;fontSize=12;" parent="SpzdYERaU6UPqIEw5BMG-1" vertex="1"><mxGeometry x="114" width="96" height="30" as="geometry"/></mxCell><mxCell id="VgGlVzqa9l6ki7_SRdDo-7" value="标签:" style="text;html=1;strokeColor=none;fillColor=none;align=center;verticalAlign=middle;whiteSpace=wrap;rounded=0;labelBorderColor=none;fontSize=12;" parent="SpzdYERaU6UPqIEw5BMG-1" vertex="1"><mxGeometry y="276" width="40" height="26" as="geometry"/></mxCell><mxCell id="VgGlVzqa9l6ki7_SRdDo-8" value="+" style="ellipse;whiteSpace=wrap;html=1;aspect=fixed;rounded=0;labelBorderColor=none;fontSize=12;fontStyle=1" parent="SpzdYERaU6UPqIEw5BMG-1" vertex="1"><mxGeometry x="190" y="279" width="15" height="15" as="geometry"/></mxCell><mxCell id="VgGlVzqa9l6ki7_SRdDo-9" value="日常" style="rounded=0;whiteSpace=wrap;html=1;labelBorderColor=none;fontSize=12;" parent="SpzdYERaU6UPqIEw5BMG-1" vertex="1"><mxGeometry x="40" y="279" width="36" height="20" as="geometry"/></mxCell><mxCell id="VgGlVzqa9l6ki7_SRdDo-10" value="-" style="ellipse;whiteSpace=wrap;html=1;aspect=fixed;rounded=0;labelBorderColor=none;fontSize=12;fontStyle=1" parent="SpzdYERaU6UPqIEw5BMG-1" vertex="1"><mxGeometry x="70" y="276" width="15" height="15" as="geometry"/></mxCell><mxCell id="NF-yjjoBrEiJR3deDnVK-1" value="" style="group;collapsible=1;" parent="SpzdYERaU6UPqIEw5BMG-1" vertex="1" connectable="0"><mxGeometry y="5" width="85" height="20" as="geometry"/></mxCell><mxCell id="VgGlVzqa9l6ki7_SRdDo-4" value="←" style="text;html=1;strokeColor=none;fillColor=none;align=center;verticalAlign=middle;whiteSpace=wrap;rounded=0;labelBorderColor=none;fontSize=19;fontStyle=1" parent="NF-yjjoBrEiJR3deDnVK-1" vertex="1"><mxGeometry width="30" height="20" as="geometry"/></mxCell><mxCell id="VgGlVzqa9l6ki7_SRdDo-13" value="√" style="text;html=1;strokeColor=none;fillColor=none;align=center;verticalAlign=middle;whiteSpace=wrap;rounded=0;labelBorderColor=none;fontSize=12;fontStyle=0" parent="NF-yjjoBrEiJR3deDnVK-1" vertex="1"><mxGeometry x="30" width="30" height="20" as="geometry"/></mxCell><mxCell id="eQqPcI8RswCi9TwIk5pw-1" value="_" style="text;html=1;strokeColor=none;fillColor=none;align=center;verticalAlign=bottom;whiteSpace=wrap;rounded=0;fontStyle=1" parent="NF-yjjoBrEiJR3deDnVK-1" vertex="1"><mxGeometry x="59" y="0.5" width="26" height="13" as="geometry"/></mxCell><mxCell id="D8ve7lxOyHqdmHS3diPf-1" value="" style="rounded=0;whiteSpace=wrap;html=1;" parent="1" vertex="1"><mxGeometry x="350" y="410" width="210" height="300" as="geometry"><mxRectangle x="350" y="390" width="50" height="40" as="alternateBounds"/></mxGeometry></mxCell><mxCell id="iTNTz-lNJHY5UwkrHeCq-7" value="搜索" style="rounded=0;whiteSpace=wrap;html=1;align=left;" parent="1" vertex="1"><mxGeometry x="356" y="450" width="196" height="30" as="geometry"/></mxCell><mxCell id="iTNTz-lNJHY5UwkrHeCq-12" value="" style="group" parent="1" vertex="1" connectable="0"><mxGeometry x="356" y="540" width="196" height="60" as="geometry"/></mxCell><mxCell id="iTNTz-lNJHY5UwkrHeCq-9" value="" style="rounded=0;whiteSpace=wrap;html=1;fillColor=#d5e8d4;strokeColor=#82b366;" parent="iTNTz-lNJHY5UwkrHeCq-12" vertex="1"><mxGeometry width="196" height="60" as="geometry"/></mxCell><mxCell id="iTNTz-lNJHY5UwkrHeCq-10" value="这里是文本内容&lt;br&gt;这里是文本内容" style="text;html=1;strokeColor=none;fillColor=none;align=left;verticalAlign=middle;whiteSpace=wrap;rounded=0;" parent="iTNTz-lNJHY5UwkrHeCq-12" vertex="1"><mxGeometry x="6" y="10" width="150" height="40" as="geometry"/></mxCell><mxCell id="iTNTz-lNJHY5UwkrHeCq-11" value="&lt;font style=&quot;font-size: 10px;&quot;&gt;02-11&lt;br&gt;20:23&lt;/font&gt;" style="text;html=1;strokeColor=none;fillColor=none;align=center;verticalAlign=middle;whiteSpace=wrap;rounded=0;" parent="iTNTz-lNJHY5UwkrHeCq-12" vertex="1"><mxGeometry x="146" width="50" height="30" as="geometry"/></mxCell><mxCell id="iTNTz-lNJHY5UwkrHeCq-18" value="" style="group" parent="1" vertex="1" connectable="0"><mxGeometry x="356" y="490" width="196" height="40" as="geometry"/></mxCell><mxCell id="iTNTz-lNJHY5UwkrHeCq-15" value="" style="rounded=0;whiteSpace=wrap;html=1;fillColor=#d5e8d4;strokeColor=#82b366;" parent="iTNTz-lNJHY5UwkrHeCq-18" vertex="1"><mxGeometry width="196" height="40" as="geometry"/></mxCell><mxCell id="iTNTz-lNJHY5UwkrHeCq-16" value="这里是文本内容" style="text;html=1;strokeColor=none;fillColor=none;align=left;verticalAlign=middle;whiteSpace=wrap;rounded=0;" parent="iTNTz-lNJHY5UwkrHeCq-18" vertex="1"><mxGeometry x="6" y="10" width="150" height="20" as="geometry"/></mxCell><mxCell id="iTNTz-lNJHY5UwkrHeCq-17" value="&lt;font style=&quot;font-size: 10px;&quot;&gt;02-11&lt;br&gt;21:23&lt;/font&gt;" style="text;html=1;strokeColor=none;fillColor=none;align=center;verticalAlign=middle;whiteSpace=wrap;rounded=0;" parent="iTNTz-lNJHY5UwkrHeCq-18" vertex="1"><mxGeometry x="146" width="50" height="30" as="geometry"/></mxCell><mxCell id="iTNTz-lNJHY5UwkrHeCq-19" value="" style="group" parent="1" vertex="1" connectable="0"><mxGeometry x="356" y="610" width="196" height="60" as="geometry"/></mxCell><mxCell id="iTNTz-lNJHY5UwkrHeCq-20" value="" style="rounded=0;whiteSpace=wrap;html=1;fillColor=#d5e8d4;strokeColor=#82b366;" parent="iTNTz-lNJHY5UwkrHeCq-19" vertex="1"><mxGeometry width="196" height="60" as="geometry"/></mxCell><mxCell id="iTNTz-lNJHY5UwkrHeCq-21" value="&lt;div style=&quot;&quot;&gt;&lt;span style=&quot;background-color: initial;&quot;&gt;这里是文本内容内容内容内&lt;/span&gt;&lt;/div&gt;这里是文本内容 ..." style="text;html=1;strokeColor=none;fillColor=none;align=left;verticalAlign=middle;whiteSpace=wrap;rounded=0;" parent="iTNTz-lNJHY5UwkrHeCq-19" vertex="1"><mxGeometry x="6" y="10" width="150" height="40" as="geometry"/></mxCell><mxCell id="iTNTz-lNJHY5UwkrHeCq-22" value="&lt;font style=&quot;font-size: 10px;&quot;&gt;02-11&lt;br&gt;10:23&lt;/font&gt;" style="text;html=1;strokeColor=none;fillColor=none;align=center;verticalAlign=middle;whiteSpace=wrap;rounded=0;" parent="iTNTz-lNJHY5UwkrHeCq-19" vertex="1"><mxGeometry x="146" width="50" height="30" as="geometry"/></mxCell><mxCell id="iTNTz-lNJHY5UwkrHeCq-67" value="" style="rounded=0;whiteSpace=wrap;html=1;labelBackgroundColor=#ffffff;fontSize=10;" parent="1" vertex="1"><mxGeometry x="350" y="410" width="210" height="30" as="geometry"/></mxCell><mxCell id="lMz28Z_D0DjKJsgIY-nA-1" value="" style="group" parent="1" vertex="1" connectable="0"><mxGeometry x="359" y="416" width="190" height="20" as="geometry"/></mxCell><mxCell id="lMz28Z_D0DjKJsgIY-nA-2" value="&amp;lt;" style="ellipse;whiteSpace=wrap;html=1;aspect=fixed;rounded=1;shadow=0;glass=0;sketch=0;fontSize=10;strokeColor=none;fillColor=#d5e8d4;align=center;horizontal=1;fontStyle=1;" parent="lMz28Z_D0DjKJsgIY-nA-1" vertex="1"><mxGeometry width="20" height="20" as="geometry"/></mxCell><mxCell id="lMz28Z_D0DjKJsgIY-nA-3" value="&amp;gt;" style="ellipse;whiteSpace=wrap;html=1;aspect=fixed;rounded=1;shadow=0;glass=0;sketch=0;fontSize=10;strokeColor=none;fillColor=#d5e8d4;align=center;horizontal=1;fontStyle=1;" parent="lMz28Z_D0DjKJsgIY-nA-1" vertex="1"><mxGeometry x="170" width="20" height="20" as="geometry"/></mxCell><mxCell id="lMz28Z_D0DjKJsgIY-nA-4" value="09" style="ellipse;whiteSpace=wrap;html=1;aspect=fixed;rounded=1;shadow=0;glass=0;sketch=0;fontSize=10;fontColor=#000066;strokeColor=none;fillColor=#E6FFCC;align=center;horizontal=1;" parent="lMz28Z_D0DjKJsgIY-nA-1" vertex="1"><mxGeometry x="24" width="20" height="20" as="geometry"/></mxCell><mxCell id="lMz28Z_D0DjKJsgIY-nA-5" value="10" style="ellipse;whiteSpace=wrap;html=1;aspect=fixed;rounded=1;shadow=0;glass=0;sketch=0;fontSize=10;fontColor=#000066;strokeColor=none;fillColor=#E6FFCC;align=center;horizontal=1;" parent="lMz28Z_D0DjKJsgIY-nA-1" vertex="1"><mxGeometry x="44" width="20" height="20" as="geometry"/></mxCell><mxCell id="lMz28Z_D0DjKJsgIY-nA-6" value="今" style="ellipse;whiteSpace=wrap;html=1;aspect=fixed;rounded=1;shadow=0;glass=0;sketch=0;fontSize=10;strokeColor=#d6b656;fillColor=#fff2cc;align=center;horizontal=1;fontStyle=1" parent="lMz28Z_D0DjKJsgIY-nA-1" vertex="1"><mxGeometry x="64" width="20" height="20" as="geometry"/></mxCell><mxCell id="lMz28Z_D0DjKJsgIY-nA-7" value="12" style="ellipse;whiteSpace=wrap;html=1;aspect=fixed;rounded=1;shadow=0;glass=0;sketch=0;fontSize=10;fontColor=#000066;strokeColor=none;fillColor=#E6FFCC;align=center;horizontal=1;" parent="lMz28Z_D0DjKJsgIY-nA-1" vertex="1"><mxGeometry x="84" width="20" height="20" as="geometry"/></mxCell><mxCell id="lMz28Z_D0DjKJsgIY-nA-8" value="13" style="ellipse;whiteSpace=wrap;html=1;aspect=fixed;rounded=1;shadow=0;glass=0;sketch=0;fontSize=10;fontColor=#000066;strokeColor=none;fillColor=#E6FFCC;align=center;horizontal=1;" parent="lMz28Z_D0DjKJsgIY-nA-1" vertex="1"><mxGeometry x="104" width="20" height="20" as="geometry"/></mxCell><mxCell id="lMz28Z_D0DjKJsgIY-nA-9" value="14" style="ellipse;whiteSpace=wrap;html=1;aspect=fixed;rounded=1;shadow=0;glass=0;sketch=0;fontSize=10;fontColor=#000066;strokeColor=none;fillColor=#E6FFCC;align=center;horizontal=1;" parent="lMz28Z_D0DjKJsgIY-nA-1" vertex="1"><mxGeometry x="124" width="20" height="20" as="geometry"/></mxCell><mxCell id="lMz28Z_D0DjKJsgIY-nA-10" value="15" style="ellipse;whiteSpace=wrap;html=1;aspect=fixed;rounded=1;shadow=0;glass=0;sketch=0;fontSize=10;fontColor=#000066;strokeColor=none;fillColor=#E6FFCC;align=center;horizontal=1;" parent="lMz28Z_D0DjKJsgIY-nA-1" vertex="1"><mxGeometry x="144" width="20" height="20" as="geometry"/></mxCell><mxCell id="lMz28Z_D0DjKJsgIY-nA-11" style="edgeStyle=orthogonalEdgeStyle;rounded=0;orthogonalLoop=1;jettySize=auto;html=1;exitX=0.5;exitY=0;exitDx=0;exitDy=0;entryX=-0.002;entryY=0.185;entryDx=0;entryDy=0;entryPerimeter=0;fontSize=10;dashed=1;" parent="1" source="xSl337rl0JZSYAczg8bN-1" target="D8ve7lxOyHqdmHS3diPf-1" edge="1"><mxGeometry relative="1" as="geometry"/></mxCell></root></mxGraphModel></diagram><diagram id="zxw4s7wSlsnj7ny2ptvt" name="表关系"><mxGraphModel dx="922" dy="375" grid="1" gridSize="10" guides="1" tooltips="1" connect="1" arrows="1" fold="1" page="1" pageScale="1" pageWidth="827" pageHeight="1169" math="0" shadow="0"><root><mxCell id="0"/><mxCell id="1" parent="0"/><mxCell id="GMxuWeXCMqnVMv5chPgO-1" value="记录表 Records" style="shape=table;startSize=30;container=1;collapsible=1;childLayout=tableLayout;fixedRows=1;rowLines=0;fontStyle=1;align=center;resizeLast=1;" parent="1" vertex="1"><mxGeometry x="70" y="100" width="180" height="160" as="geometry"/></mxCell><mxCell id="GMxuWeXCMqnVMv5chPgO-2" value="" style="shape=tableRow;horizontal=0;startSize=0;swimlaneHead=0;swimlaneBody=0;fillColor=none;collapsible=0;dropTarget=0;points=[[0,0.5],[1,0.5]];portConstraint=eastwest;top=0;left=0;right=0;bottom=1;" parent="GMxuWeXCMqnVMv5chPgO-1" vertex="1"><mxGeometry y="30" width="180" height="30" as="geometry"/></mxCell><mxCell id="GMxuWeXCMqnVMv5chPgO-3" value="PK" style="shape=partialRectangle;connectable=0;fillColor=none;top=0;left=0;bottom=0;right=0;fontStyle=1;overflow=hidden;" parent="GMxuWeXCMqnVMv5chPgO-2" vertex="1"><mxGeometry width="30" height="30" as="geometry"><mxRectangle width="30" height="30" as="alternateBounds"/></mxGeometry></mxCell><mxCell id="GMxuWeXCMqnVMv5chPgO-4" value="rid" style="shape=partialRectangle;connectable=0;fillColor=none;top=0;left=0;bottom=0;right=0;align=left;spacingLeft=6;fontStyle=5;overflow=hidden;" parent="GMxuWeXCMqnVMv5chPgO-2" vertex="1"><mxGeometry x="30" width="150" height="30" as="geometry"><mxRectangle width="150" height="30" as="alternateBounds"/></mxGeometry></mxCell><mxCell id="GMxuWeXCMqnVMv5chPgO-8" value="" style="shape=tableRow;horizontal=0;startSize=0;swimlaneHead=0;swimlaneBody=0;fillColor=none;collapsible=0;dropTarget=0;points=[[0,0.5],[1,0.5]];portConstraint=eastwest;top=0;left=0;right=0;bottom=0;" parent="GMxuWeXCMqnVMv5chPgO-1" vertex="1"><mxGeometry y="60" width="180" height="30" as="geometry"/></mxCell><mxCell id="GMxuWeXCMqnVMv5chPgO-9" value="" style="shape=partialRectangle;connectable=0;fillColor=none;top=0;left=0;bottom=0;right=0;editable=1;overflow=hidden;" parent="GMxuWeXCMqnVMv5chPgO-8" vertex="1"><mxGeometry width="30" height="30" as="geometry"><mxRectangle width="30" height="30" as="alternateBounds"/></mxGeometry></mxCell><mxCell id="GMxuWeXCMqnVMv5chPgO-10" value="content  内容" style="shape=partialRectangle;connectable=0;fillColor=none;top=0;left=0;bottom=0;right=0;align=left;spacingLeft=6;overflow=hidden;" parent="GMxuWeXCMqnVMv5chPgO-8" vertex="1"><mxGeometry x="30" width="150" height="30" as="geometry"><mxRectangle width="150" height="30" as="alternateBounds"/></mxGeometry></mxCell><mxCell id="GMxuWeXCMqnVMv5chPgO-11" value="" style="shape=tableRow;horizontal=0;startSize=0;swimlaneHead=0;swimlaneBody=0;fillColor=none;collapsible=0;dropTarget=0;points=[[0,0.5],[1,0.5]];portConstraint=eastwest;top=0;left=0;right=0;bottom=0;" parent="GMxuWeXCMqnVMv5chPgO-1" vertex="1"><mxGeometry y="90" width="180" height="30" as="geometry"/></mxCell><mxCell id="GMxuWeXCMqnVMv5chPgO-12" value="" style="shape=partialRectangle;connectable=0;fillColor=none;top=0;left=0;bottom=0;right=0;editable=1;overflow=hidden;" parent="GMxuWeXCMqnVMv5chPgO-11" vertex="1"><mxGeometry width="30" height="30" as="geometry"><mxRectangle width="30" height="30" as="alternateBounds"/></mxGeometry></mxCell><mxCell id="GMxuWeXCMqnVMv5chPgO-13" value="indate  保存日期" style="shape=partialRectangle;connectable=0;fillColor=none;top=0;left=0;bottom=0;right=0;align=left;spacingLeft=6;overflow=hidden;" parent="GMxuWeXCMqnVMv5chPgO-11" vertex="1"><mxGeometry x="30" width="150" height="30" as="geometry"><mxRectangle width="150" height="30" as="alternateBounds"/></mxGeometry></mxCell><mxCell id="GMxuWeXCMqnVMv5chPgO-64" value="" style="shape=tableRow;horizontal=0;startSize=0;swimlaneHead=0;swimlaneBody=0;fillColor=none;collapsible=0;dropTarget=0;points=[[0,0.5],[1,0.5]];portConstraint=eastwest;top=0;left=0;right=0;bottom=0;" parent="GMxuWeXCMqnVMv5chPgO-1" vertex="1"><mxGeometry y="120" width="180" height="30" as="geometry"/></mxCell><mxCell id="GMxuWeXCMqnVMv5chPgO-65" value="" style="shape=partialRectangle;connectable=0;fillColor=none;top=0;left=0;bottom=0;right=0;editable=1;overflow=hidden;" parent="GMxuWeXCMqnVMv5chPgO-64" vertex="1"><mxGeometry width="30" height="30" as="geometry"><mxRectangle width="30" height="30" as="alternateBounds"/></mxGeometry></mxCell><mxCell id="GMxuWeXCMqnVMv5chPgO-66" value="status  状态" style="shape=partialRectangle;connectable=0;fillColor=none;top=0;left=0;bottom=0;right=0;align=left;spacingLeft=6;overflow=hidden;" parent="GMxuWeXCMqnVMv5chPgO-64" vertex="1"><mxGeometry x="30" width="150" height="30" as="geometry"><mxRectangle width="150" height="30" as="alternateBounds"/></mxGeometry></mxCell><mxCell id="GMxuWeXCMqnVMv5chPgO-27" value="标签表 Tags" style="shape=table;startSize=30;container=1;collapsible=1;childLayout=tableLayout;fixedRows=1;rowLines=0;fontStyle=1;align=center;resizeLast=1;" parent="1" vertex="1"><mxGeometry x="340" y="390" width="180" height="120" as="geometry"/></mxCell><mxCell id="GMxuWeXCMqnVMv5chPgO-28" value="" style="shape=tableRow;horizontal=0;startSize=0;swimlaneHead=0;swimlaneBody=0;fillColor=none;collapsible=0;dropTarget=0;points=[[0,0.5],[1,0.5]];portConstraint=eastwest;top=0;left=0;right=0;bottom=1;" parent="GMxuWeXCMqnVMv5chPgO-27" vertex="1"><mxGeometry y="30" width="180" height="30" as="geometry"/></mxCell><mxCell id="GMxuWeXCMqnVMv5chPgO-29" value="PK" style="shape=partialRectangle;connectable=0;fillColor=none;top=0;left=0;bottom=0;right=0;fontStyle=1;overflow=hidden;" parent="GMxuWeXCMqnVMv5chPgO-28" vertex="1"><mxGeometry width="30" height="30" as="geometry"><mxRectangle width="30" height="30" as="alternateBounds"/></mxGeometry></mxCell><mxCell id="GMxuWeXCMqnVMv5chPgO-30" value="tid" style="shape=partialRectangle;connectable=0;fillColor=none;top=0;left=0;bottom=0;right=0;align=left;spacingLeft=6;fontStyle=5;overflow=hidden;" parent="GMxuWeXCMqnVMv5chPgO-28" vertex="1"><mxGeometry x="30" width="150" height="30" as="geometry"><mxRectangle width="150" height="30" as="alternateBounds"/></mxGeometry></mxCell><mxCell id="GMxuWeXCMqnVMv5chPgO-37" value="" style="shape=tableRow;horizontal=0;startSize=0;swimlaneHead=0;swimlaneBody=0;fillColor=none;collapsible=0;dropTarget=0;points=[[0,0.5],[1,0.5]];portConstraint=eastwest;top=0;left=0;right=0;bottom=0;" parent="GMxuWeXCMqnVMv5chPgO-27" vertex="1"><mxGeometry y="60" width="180" height="30" as="geometry"/></mxCell><mxCell id="GMxuWeXCMqnVMv5chPgO-38" value="" style="shape=partialRectangle;connectable=0;fillColor=none;top=0;left=0;bottom=0;right=0;editable=1;overflow=hidden;" parent="GMxuWeXCMqnVMv5chPgO-37" vertex="1"><mxGeometry width="30" height="30" as="geometry"><mxRectangle width="30" height="30" as="alternateBounds"/></mxGeometry></mxCell><mxCell id="GMxuWeXCMqnVMv5chPgO-39" value="text  文本" style="shape=partialRectangle;connectable=0;fillColor=none;top=0;left=0;bottom=0;right=0;align=left;spacingLeft=6;overflow=hidden;" parent="GMxuWeXCMqnVMv5chPgO-37" vertex="1"><mxGeometry x="30" width="150" height="30" as="geometry"><mxRectangle width="150" height="30" as="alternateBounds"/></mxGeometry></mxCell><mxCell id="GMxuWeXCMqnVMv5chPgO-52" value="" style="shape=tableRow;horizontal=0;startSize=0;swimlaneHead=0;swimlaneBody=0;fillColor=none;collapsible=0;dropTarget=0;points=[[0,0.5],[1,0.5]];portConstraint=eastwest;top=0;left=0;right=0;bottom=0;" parent="GMxuWeXCMqnVMv5chPgO-27" vertex="1"><mxGeometry y="90" width="180" height="30" as="geometry"/></mxCell><mxCell id="GMxuWeXCMqnVMv5chPgO-53" value="" style="shape=partialRectangle;connectable=0;fillColor=none;top=0;left=0;bottom=0;right=0;editable=1;overflow=hidden;" parent="GMxuWeXCMqnVMv5chPgO-52" vertex="1"><mxGeometry width="30" height="30" as="geometry"><mxRectangle width="30" height="30" as="alternateBounds"/></mxGeometry></mxCell><mxCell id="GMxuWeXCMqnVMv5chPgO-54" value="type 类型" style="shape=partialRectangle;connectable=0;fillColor=none;top=0;left=0;bottom=0;right=0;align=left;spacingLeft=6;overflow=hidden;" parent="GMxuWeXCMqnVMv5chPgO-52" vertex="1"><mxGeometry x="30" width="150" height="30" as="geometry"><mxRectangle width="150" height="30" as="alternateBounds"/></mxGeometry></mxCell><mxCell id="GMxuWeXCMqnVMv5chPgO-71" value="status(未使用):&lt;br&gt;0: 无状态&lt;br&gt;&lt;div style=&quot;&quot;&gt;&lt;span&gt;1: 完成&lt;/span&gt;&lt;/div&gt;&lt;div style=&quot;&quot;&gt;&lt;span&gt;2: 未完成&lt;/span&gt;&lt;/div&gt;" style="shape=note;size=20;whiteSpace=wrap;html=1;align=left;" parent="1" vertex="1"><mxGeometry x="630" y="250" width="100" height="120" as="geometry"/></mxCell><mxCell id="GMxuWeXCMqnVMv5chPgO-76" value="标签关系表RTRel" style="shape=table;startSize=30;container=1;collapsible=1;childLayout=tableLayout;fixedRows=1;rowLines=0;fontStyle=1;align=center;resizeLast=1;swimlaneFillColor=none;labelBorderColor=none;" parent="1" vertex="1"><mxGeometry x="70" y="330" width="180" height="150" as="geometry"/></mxCell><mxCell id="GMxuWeXCMqnVMv5chPgO-77" value="" style="shape=tableRow;horizontal=0;startSize=0;swimlaneHead=0;swimlaneBody=0;fillColor=none;collapsible=0;dropTarget=0;points=[[0,0.5],[1,0.5]];portConstraint=eastwest;top=0;left=0;right=0;bottom=1;" parent="GMxuWeXCMqnVMv5chPgO-76" vertex="1"><mxGeometry y="30" width="180" height="30" as="geometry"/></mxCell><mxCell id="GMxuWeXCMqnVMv5chPgO-78" value="PK" style="shape=partialRectangle;connectable=0;fillColor=none;top=0;left=0;bottom=0;right=0;fontStyle=1;overflow=hidden;" parent="GMxuWeXCMqnVMv5chPgO-77" vertex="1"><mxGeometry width="30" height="30" as="geometry"><mxRectangle width="30" height="30" as="alternateBounds"/></mxGeometry></mxCell><mxCell id="GMxuWeXCMqnVMv5chPgO-79" value="uid" style="shape=partialRectangle;connectable=0;fillColor=none;top=0;left=0;bottom=0;right=0;align=left;spacingLeft=6;fontStyle=5;overflow=hidden;" parent="GMxuWeXCMqnVMv5chPgO-77" vertex="1"><mxGeometry x="30" width="150" height="30" as="geometry"><mxRectangle width="150" height="30" as="alternateBounds"/></mxGeometry></mxCell><mxCell id="GMxuWeXCMqnVMv5chPgO-89" value="" style="shape=tableRow;horizontal=0;startSize=0;swimlaneHead=0;swimlaneBody=0;fillColor=none;collapsible=0;dropTarget=0;points=[[0,0.5],[1,0.5]];portConstraint=eastwest;top=0;left=0;right=0;bottom=0;" parent="GMxuWeXCMqnVMv5chPgO-76" vertex="1"><mxGeometry y="60" width="180" height="30" as="geometry"/></mxCell><mxCell id="GMxuWeXCMqnVMv5chPgO-90" value="FK" style="shape=partialRectangle;connectable=0;fillColor=none;top=0;left=0;bottom=0;right=0;fontStyle=0;overflow=hidden;" parent="GMxuWeXCMqnVMv5chPgO-89" vertex="1"><mxGeometry width="30" height="30" as="geometry"><mxRectangle width="30" height="30" as="alternateBounds"/></mxGeometry></mxCell><mxCell id="GMxuWeXCMqnVMv5chPgO-91" value="rid" style="shape=partialRectangle;connectable=0;fillColor=none;top=0;left=0;bottom=0;right=0;align=left;spacingLeft=6;fontStyle=0;overflow=hidden;" parent="GMxuWeXCMqnVMv5chPgO-89" vertex="1"><mxGeometry x="30" width="150" height="30" as="geometry"><mxRectangle width="150" height="30" as="alternateBounds"/></mxGeometry></mxCell><mxCell id="GMxuWeXCMqnVMv5chPgO-92" value="" style="shape=tableRow;horizontal=0;startSize=0;swimlaneHead=0;swimlaneBody=0;fillColor=none;collapsible=0;dropTarget=0;points=[[0,0.5],[1,0.5]];portConstraint=eastwest;top=0;left=0;right=0;bottom=0;" parent="GMxuWeXCMqnVMv5chPgO-76" vertex="1"><mxGeometry y="90" width="180" height="30" as="geometry"/></mxCell><mxCell id="GMxuWeXCMqnVMv5chPgO-93" value="FK" style="shape=partialRectangle;connectable=0;fillColor=none;top=0;left=0;bottom=0;right=0;fontStyle=0;overflow=hidden;" parent="GMxuWeXCMqnVMv5chPgO-92" vertex="1"><mxGeometry width="30" height="30" as="geometry"><mxRectangle width="30" height="30" as="alternateBounds"/></mxGeometry></mxCell><mxCell id="GMxuWeXCMqnVMv5chPgO-94" value="tid" style="shape=partialRectangle;connectable=0;fillColor=none;top=0;left=0;bottom=0;right=0;align=left;spacingLeft=6;fontStyle=0;overflow=hidden;" parent="GMxuWeXCMqnVMv5chPgO-92" vertex="1"><mxGeometry x="30" width="150" height="30" as="geometry"><mxRectangle width="150" height="30" as="alternateBounds"/></mxGeometry></mxCell><mxCell id="GMxuWeXCMqnVMv5chPgO-86" value="" style="shape=tableRow;horizontal=0;startSize=0;swimlaneHead=0;swimlaneBody=0;fillColor=none;collapsible=0;dropTarget=0;points=[[0,0.5],[1,0.5]];portConstraint=eastwest;top=0;left=0;right=0;bottom=0;" parent="GMxuWeXCMqnVMv5chPgO-76" vertex="1"><mxGeometry y="120" width="180" height="30" as="geometry"/></mxCell><mxCell id="GMxuWeXCMqnVMv5chPgO-87" value="" style="shape=partialRectangle;connectable=0;fillColor=none;top=0;left=0;bottom=0;right=0;editable=1;overflow=hidden;" parent="GMxuWeXCMqnVMv5chPgO-86" vertex="1"><mxGeometry width="30" height="30" as="geometry"><mxRectangle width="30" height="30" as="alternateBounds"/></mxGeometry></mxCell><mxCell id="GMxuWeXCMqnVMv5chPgO-88" value="sort 排序" style="shape=partialRectangle;connectable=0;fillColor=none;top=0;left=0;bottom=0;right=0;align=left;spacingLeft=6;overflow=hidden;" parent="GMxuWeXCMqnVMv5chPgO-86" vertex="1"><mxGeometry x="30" width="150" height="30" as="geometry"><mxRectangle width="150" height="30" as="alternateBounds"/></mxGeometry></mxCell><mxCell id="GMxuWeXCMqnVMv5chPgO-95" style="edgeStyle=orthogonalEdgeStyle;rounded=0;orthogonalLoop=1;jettySize=auto;html=1;exitX=1;exitY=0.5;exitDx=0;exitDy=0;entryX=1;entryY=0.5;entryDx=0;entryDy=0;" parent="1" source="GMxuWeXCMqnVMv5chPgO-89" target="GMxuWeXCMqnVMv5chPgO-2" edge="1"><mxGeometry relative="1" as="geometry"/></mxCell><mxCell id="GMxuWeXCMqnVMv5chPgO-96" style="edgeStyle=orthogonalEdgeStyle;rounded=0;orthogonalLoop=1;jettySize=auto;html=1;exitX=1;exitY=0.5;exitDx=0;exitDy=0;entryX=0;entryY=0.5;entryDx=0;entryDy=0;" parent="1" source="GMxuWeXCMqnVMv5chPgO-92" target="GMxuWeXCMqnVMv5chPgO-28" edge="1"><mxGeometry relative="1" as="geometry"/></mxCell><mxCell id="Zv9tK9ziYEUpshk9WdnR-1" value="附件表 AttachFile" style="shape=table;startSize=30;container=1;collapsible=1;childLayout=tableLayout;fixedRows=1;rowLines=0;fontStyle=1;align=center;resizeLast=1;" parent="1" vertex="1"><mxGeometry x="380" y="160" width="180" height="160" as="geometry"/></mxCell><mxCell id="Zv9tK9ziYEUpshk9WdnR-2" value="" style="shape=tableRow;horizontal=0;startSize=0;swimlaneHead=0;swimlaneBody=0;fillColor=none;collapsible=0;dropTarget=0;points=[[0,0.5],[1,0.5]];portConstraint=eastwest;top=0;left=0;right=0;bottom=1;" parent="Zv9tK9ziYEUpshk9WdnR-1" vertex="1"><mxGeometry y="30" width="180" height="30" as="geometry"/></mxCell><mxCell id="Zv9tK9ziYEUpshk9WdnR-3" value="PK" style="shape=partialRectangle;connectable=0;fillColor=none;top=0;left=0;bottom=0;right=0;fontStyle=1;overflow=hidden;" parent="Zv9tK9ziYEUpshk9WdnR-2" vertex="1"><mxGeometry width="30" height="30" as="geometry"><mxRectangle width="30" height="30" as="alternateBounds"/></mxGeometry></mxCell><mxCell id="Zv9tK9ziYEUpshk9WdnR-4" value="fid" style="shape=partialRectangle;connectable=0;fillColor=none;top=0;left=0;bottom=0;right=0;align=left;spacingLeft=6;fontStyle=5;overflow=hidden;" parent="Zv9tK9ziYEUpshk9WdnR-2" vertex="1"><mxGeometry x="30" width="150" height="30" as="geometry"><mxRectangle width="150" height="30" as="alternateBounds"/></mxGeometry></mxCell><mxCell id="Zv9tK9ziYEUpshk9WdnR-5" value="" style="shape=tableRow;horizontal=0;startSize=0;swimlaneHead=0;swimlaneBody=0;fillColor=none;collapsible=0;dropTarget=0;points=[[0,0.5],[1,0.5]];portConstraint=eastwest;top=0;left=0;right=0;bottom=0;" parent="Zv9tK9ziYEUpshk9WdnR-1" vertex="1"><mxGeometry y="60" width="180" height="30" as="geometry"/></mxCell><mxCell id="Zv9tK9ziYEUpshk9WdnR-6" value="" style="shape=partialRectangle;connectable=0;fillColor=none;top=0;left=0;bottom=0;right=0;editable=1;overflow=hidden;" parent="Zv9tK9ziYEUpshk9WdnR-5" vertex="1"><mxGeometry width="30" height="30" as="geometry"><mxRectangle width="30" height="30" as="alternateBounds"/></mxGeometry></mxCell><mxCell id="Zv9tK9ziYEUpshk9WdnR-7" value="rid 记录id" style="shape=partialRectangle;connectable=0;fillColor=none;top=0;left=0;bottom=0;right=0;align=left;spacingLeft=6;overflow=hidden;" parent="Zv9tK9ziYEUpshk9WdnR-5" vertex="1"><mxGeometry x="30" width="150" height="30" as="geometry"><mxRectangle width="150" height="30" as="alternateBounds"/></mxGeometry></mxCell><mxCell id="Zv9tK9ziYEUpshk9WdnR-8" value="" style="shape=tableRow;horizontal=0;startSize=0;swimlaneHead=0;swimlaneBody=0;fillColor=none;collapsible=0;dropTarget=0;points=[[0,0.5],[1,0.5]];portConstraint=eastwest;top=0;left=0;right=0;bottom=0;" parent="Zv9tK9ziYEUpshk9WdnR-1" vertex="1"><mxGeometry y="90" width="180" height="30" as="geometry"/></mxCell><mxCell id="Zv9tK9ziYEUpshk9WdnR-9" value="" style="shape=partialRectangle;connectable=0;fillColor=none;top=0;left=0;bottom=0;right=0;editable=1;overflow=hidden;" parent="Zv9tK9ziYEUpshk9WdnR-8" vertex="1"><mxGeometry width="30" height="30" as="geometry"><mxRectangle width="30" height="30" as="alternateBounds"/></mxGeometry></mxCell><mxCell id="Zv9tK9ziYEUpshk9WdnR-10" value="file 文件二进制数据" style="shape=partialRectangle;connectable=0;fillColor=none;top=0;left=0;bottom=0;right=0;align=left;spacingLeft=6;overflow=hidden;" parent="Zv9tK9ziYEUpshk9WdnR-8" vertex="1"><mxGeometry x="30" width="150" height="30" as="geometry"><mxRectangle width="150" height="30" as="alternateBounds"/></mxGeometry></mxCell><mxCell id="Zv9tK9ziYEUpshk9WdnR-11" value="" style="shape=tableRow;horizontal=0;startSize=0;swimlaneHead=0;swimlaneBody=0;fillColor=none;collapsible=0;dropTarget=0;points=[[0,0.5],[1,0.5]];portConstraint=eastwest;top=0;left=0;right=0;bottom=0;" parent="Zv9tK9ziYEUpshk9WdnR-1" vertex="1"><mxGeometry y="120" width="180" height="30" as="geometry"/></mxCell><mxCell id="Zv9tK9ziYEUpshk9WdnR-12" value="" style="shape=partialRectangle;connectable=0;fillColor=none;top=0;left=0;bottom=0;right=0;editable=1;overflow=hidden;" parent="Zv9tK9ziYEUpshk9WdnR-11" vertex="1"><mxGeometry width="30" height="30" as="geometry"><mxRectangle width="30" height="30" as="alternateBounds"/></mxGeometry></mxCell><mxCell id="Zv9tK9ziYEUpshk9WdnR-13" value="suffix 文件后缀" style="shape=partialRectangle;connectable=0;fillColor=none;top=0;left=0;bottom=0;right=0;align=left;spacingLeft=6;overflow=hidden;" parent="Zv9tK9ziYEUpshk9WdnR-11" vertex="1"><mxGeometry x="30" width="150" height="30" as="geometry"><mxRectangle width="150" height="30" as="alternateBounds"/></mxGeometry></mxCell><mxCell id="Zv9tK9ziYEUpshk9WdnR-14" style="edgeStyle=orthogonalEdgeStyle;rounded=0;orthogonalLoop=1;jettySize=auto;html=1;exitX=0;exitY=0.5;exitDx=0;exitDy=0;entryX=1;entryY=0.5;entryDx=0;entryDy=0;" parent="1" source="Zv9tK9ziYEUpshk9WdnR-5" target="GMxuWeXCMqnVMv5chPgO-2" edge="1"><mxGeometry relative="1" as="geometry"/></mxCell><mxCell id="Zv9tK9ziYEUpshk9WdnR-15" value="v2.1版本添加" style="text;html=1;align=center;verticalAlign=middle;resizable=0;points=[];autosize=1;strokeColor=none;fillColor=none;" parent="1" vertex="1"><mxGeometry x="380" y="140" width="90" height="20" as="geometry"/></mxCell></root></mxGraphModel></diagram></mxfile>